<?xml version="1.0" encoding="iso-8859-1"?>
<!-- Generator: Adobe Illustrator 19.0.0, SVG Export Plug-In . SVG Version: 6.00 Build 0)  -->
<svg version="1.1" id="Capa_1" xmlns="http://www.w3.org/2000/svg" xmlns:xlink="http://www.w3.org/1999/xlink" x="0px" y="0px"
	 viewBox="0 0 512 512" style="enable-background:new 0 0 512 512;" xml:space="preserve">
<g>
	<g>
		<path d="M110.741,278.144c-3.968-1.643-8.555-0.747-11.627,2.304L64,315.584l-35.115-35.115
			c-3.051-3.051-7.659-3.947-11.627-2.304c-3.989,1.621-6.592,5.525-6.592,9.835v213.333c0,5.888,4.779,10.667,10.667,10.667h85.333
			c5.888,0,10.667-4.779,10.667-10.667V288C117.333,283.691,114.731,279.787,110.741,278.144z"/>
	</g>
</g>
<g>
	<g>
		<path d="M242.219,237.781l-42.667-42.667c-4.16-4.16-10.923-4.16-15.083,0l-42.667,42.667c-2.005,2.005-3.136,4.715-3.136,7.552
			v256c0,5.888,4.779,10.667,10.667,10.667h85.333c5.888,0,10.667-4.779,10.667-10.667v-256
			C245.333,242.496,244.203,239.787,242.219,237.781z"/>
	</g>
</g>
<g>
	<g>
		<path d="M370.219,195.115l-42.667-42.667c-4.16-4.16-10.923-4.16-15.083,0l-42.667,42.667c-2.005,2.005-3.136,4.715-3.136,7.552
			v298.667c0,5.888,4.779,10.667,10.667,10.667h85.333c5.888,0,10.667-4.779,10.667-10.667V202.667
			C373.333,199.829,372.203,197.12,370.219,195.115z"/>
	</g>
</g>
<g>
	<g>
		<path d="M498.219,131.115l-21.333-21.333c-2.005-1.984-4.715-3.115-7.552-3.115H448c-2.837,0-5.547,1.131-7.552,3.115
			l-42.667,42.667c-1.984,2.005-3.115,4.715-3.115,7.552v341.333c0,5.888,4.779,10.667,10.667,10.667h85.333
			c5.888,0,10.667-4.779,10.667-10.667V138.667C501.333,135.829,500.203,133.12,498.219,131.115z"/>
	</g>
</g>
<g>
	<g>
		<path d="M490.667,0h-64c-4.309,0-8.213,2.603-9.856,6.592c-1.643,3.989-0.725,8.576,2.304,11.627l24.469,24.448l-80.917,80.917
			l-35.115-35.115c-4.16-4.16-10.923-4.16-15.083,0l-77.803,77.781l-35.115-35.136c-4.16-4.16-10.923-4.16-15.083,0L64,251.584
			l-35.115-35.115c-4.16-4.16-10.923-4.16-15.083,0c-4.16,4.16-4.16,10.923,0,15.083l42.667,42.667
			c2.069,2.069,4.8,3.115,7.531,3.115s5.461-1.045,7.552-3.115L192,153.749l35.115,35.115c4.16,4.16,10.923,4.16,15.083,0
			L320,111.083l35.115,35.115c4.16,4.16,10.923,4.16,15.083,0l88.469-88.448l24.448,24.448c2.048,2.048,4.779,3.136,7.552,3.136
			c1.365,0,2.773-0.256,4.075-0.811c3.989-1.643,6.592-5.547,6.592-9.856v-64C501.333,4.779,496.555,0,490.667,0z"/>
	</g>
</g>
<g>
</g>
<g>
</g>
<g>
</g>
<g>
</g>
<g>
</g>
<g>
</g>
<g>
</g>
<g>
</g>
<g>
</g>
<g>
</g>
<g>
</g>
<g>
</g>
<g>
</g>
<g>
</g>
<g>
</g>
</svg>
