<?xml version="1.0" encoding="utf-8"?>
<!-- Generator: Adobe Illustrator 24.0.2, SVG Export Plug-In . SVG Version: 6.00 Build 0)  -->
<svg version="1.1" id="Capa_1" xmlns="http://www.w3.org/2000/svg" xmlns:xlink="http://www.w3.org/1999/xlink" x="0px" y="0px"
	 viewBox="0 0 386.3 386.3" style="enable-background:new 0 0 386.3 386.3;" xml:space="preserve">
<style type="text/css">
	.st0{fill:#211915;stroke:#211915;stroke-width:3;stroke-miterlimit:10;}
</style>
<g>
	<g>
		<path d="M175,98l-28.6-14.3c-3.5-1.8-7.8-0.7-10.1,2.5l-13.4,18.5l-13.4-18.5c-2.3-3.2-6.6-4.2-10.1-2.5L70.8,98
			c-2.7,1.4-4.4,4.1-4.4,7.1v45.1c0,4.4,3.5,8,7.9,8.1c0,0,0.1,0,0.1,0h97c4.4,0,8-3.6,8-8v-45.2C179.4,102.1,177.7,99.4,175,98z"/>
		<path d="M163.7,142.3H82.4v-32l18.2-9l16,22c2.6,3.6,7.6,4.4,11.2,1.8c0.7-0.5,1.3-1.1,1.8-1.8l16-22l18.2,9V142.3z"/>
	</g>
</g>
<g>
	<g>
		<path d="M124.5,0c-18-0.9-33.3,13-34.2,31c-0.1,1.1-0.1,2.2,0,3.2c-0.1,16.7,13,42,32.6,42s32.6-25.3,32.6-42
			C156.4,16.3,142.5,0.9,124.5,0z"/>
		<path d="M122.9,60c-7.9,0-16.6-15.3-16.6-26c0.3-8.9,7.7-16,16.6-16v-0.3c9.1,0,16.5,7.3,16.6,16.3C139.5,44.5,130.8,60,122.9,60z
			"/>
	</g>
</g>
<g>
	<g>
		<path d="M315.2,98l-28.6-14.3c-3.5-1.8-7.8-0.7-10.1,2.5l-13.4,18.6l-13.4-18.6c-2.3-3.2-6.6-4.2-10.1-2.5L211,98
			c-2.7,1.4-4.4,4.1-4.4,7.1v45.1c0,4.4,3.5,8,7.9,8.1c0,0,0.1,0,0.1,0h97c4.4,0,8-3.6,8-8v-45.2C319.6,102.1,317.9,99.4,315.2,98z"
			/>
		<path d="M303.9,142.3h-81.3v-32l18.2-9l16,22c2.6,3.6,7.6,4.4,11.2,1.8c0.7-0.5,1.3-1.1,1.8-1.8l16-22l18.2,9V142.3z"/>
	</g>
</g>
<g>
	<g>
		<path d="M264.8,0c-18-0.9-33.3,13-34.2,31c-0.1,1.1-0.1,2.2,0,3.2c-0.1,16.7,13,42,32.6,42s32.6-25.3,32.6-42
			C296.7,16.3,282.8,0.9,264.8,0z"/>
		<path d="M263,60c-7.9,0-16.6-15.3-16.6-26c0.3-8.9,7.7-16,16.6-16v-0.3c9,0,16.4,7.3,16.6,16.3C279.7,44.5,271,60,263,60z"/>
	</g>
</g>
<g>
	<path d="M348.6,170c0,0-310.7,0-310.7,0c-9.3,0-16.8,7.5-16.8,16.8v49.9c0.8,17.9,17.3,17.4,30.8,16.8v116
		c0,9.3,7.5,16.8,16.8,16.8h249c9.3,0,16.8-7.5,16.8-16.8V253.5c13.5,0.6,30,1.1,30.8-16.8c0,0,0-50,0-50
		C365.2,177.5,357.8,170.1,348.6,170z"/>
	<path d="M349.4,236.8c0,0.4-0.4,0.8-0.8,0.8h-22.1c-4.4,0-8,3.6-8,8c-0.9,0.8,1.5,124.9-0.8,124.7c-0.8-0.8-249.9,1.5-249.8-0.8
		c0,0,0-124.1,0-124.1c0-4.4-3.6-8-8-8H37.8c-2.2,0.2-0.1-50-0.8-50.8c-0.2-2.3,310.8,0,311.5-0.8
		C350.8,185.7,348.6,236,349.4,236.8L349.4,236.8z"/>
</g>
<g>
	<g>
		<path class="st0" d="M270.6,223.2h-155c-9.3,0-16.8,7.5-16.8,16.8v76.4c0,9.3,7.5,16.8,16.8,16.8h155c9.3,0,16.8-7.5,16.8-16.8
			V240C287.4,230.7,279.9,223.2,270.6,223.2z"/>
		<path class="st0" d="M271.4,316.4c0,0.4-0.4,0.8-0.8,0.8h-155c-0.4,0-0.8-0.4-0.8-0.8V240c0-0.4,0.4-0.8,0.8-0.8h155
			c0.4,0,0.8,0.4,0.8,0.8V316.4z"/>
	</g>
</g>
</svg>
