<?xml version="1.0" encoding="utf-8"?>
<!-- Generator: Adobe Illustrator 24.0.2, SVG Export Plug-In . SVG Version: 6.00 Build 0)  -->
<svg version="1.1" id="Capa_1" xmlns="http://www.w3.org/2000/svg" xmlns:xlink="http://www.w3.org/1999/xlink" x="0px" y="0px"
	 viewBox="0 0 360 360" style="enable-background:new 0 0 360 360;" xml:space="preserve">
<style type="text/css">
	.st0{fill:#FFFFFF;}
</style>
<g>
	<g>
		<path d="M349.4,100L184.1,1.1c-2.5-1.4-5.5-1.4-8,0L10.5,100c-2.4,1.4-3.9,4.1-3.9,6.9v24c0,4.4,3.6,8,8,8h330.7c4.4,0,8-3.6,8-8
			v-24C353.3,104,351.8,101.4,349.4,100z"/>
		<polygon points="22.6,122.8 22.6,111.2 180,17.2 337.3,111.2 337.3,122.8 		"/>
	</g>
</g>
<g>
	<g>
		<path d="M77.7,152.6H38.3c-4.4,0-8,3.6-8,8V296c0,4.4,3.6,8,8,8h39.4c4.4,0,8-3.6,8-8V160.6C85.7,156.2,82.1,152.6,77.7,152.6z"/>
		<rect x="46.3" y="168.6" width="23.4" height="119.4"/>
	</g>
</g>
<g>
	<g>
		<path d="M199.7,152.6h-39.4c-4.4,0-8,3.6-8,8V296c0,4.4,3.6,8,8,8h39.4c4.4,0,8-3.6,8-8V160.6
			C207.7,156.2,204.1,152.6,199.7,152.6z"/>
		<rect x="168.3" y="168.6" width="23.4" height="119.4"/>
	</g>
</g>
<g>
	<g>
		<path d="M321.7,152.6h-39.4c-4.4,0-8,3.6-8,8V296c0,4.4,3.6,8,8,8h39.4c4.4,0,8-3.6,8-8V160.6
			C329.7,156.2,326.1,152.6,321.7,152.6z"/>
		<rect x="290.3" y="168.6" width="23.4" height="119.4"/>
	</g>
</g>
<g>
	<g>
		<path class="st0" d="M180,48c-18,0-32.6,14.6-32.6,32.6c0,18,14.6,32.6,32.6,32.6s32.6-14.6,32.6-32.6S198,48,180,48z"/>
		<path class="st0" d="M180.1,97.2c-9.2,0-16.6-7.4-16.6-16.6c0-9.2,7.4-16.6,16.6-16.6c9.2,0,16.6,7.5,16.6,16.6h0.1
			C196.7,89.8,189.2,97.2,180.1,97.2z"/>
	</g>
</g>
<g>
	<g>
		<path d="M326.6,317.3H33.3c-4.4,0-8,3.6-8,8s3.6,8,8,8h293.3c4.4,0,8-3.6,8-8S331,317.3,326.6,317.3z"/>
	</g>
</g>
<g>
	<g>
		<path d="M345.3,344H14.6c-4.4,0-8,3.6-8,8s3.6,8,8,8h330.7c4.4,0,8-3.6,8-8S349.8,344,345.3,344z"/>
	</g>
</g>
</svg>
